HIERARCHY
ROOT Hips
{
	OFFSET 0.000000 89.005402 0.000000
	CHANNELS 6 Xposition Yposition Zposition Xrotation Yrotation Zrotation
	JOINT Spine
	{
		OFFSET 0.116900 10.681000 0.373400
		CHANNELS 3 Xrotation Yrotation Zrotation
		JOINT Spine1
		{
			OFFSET 0.000000 13.840401 0.053500
			CHANNELS 3 Xrotation Yrotation Zrotation
			JOINT Spine2
			{
				OFFSET 0.000000 14.712700 -0.366200
				CHANNELS 3 Xrotation Yrotation Zrotation
				JOINT Neck
				{
					OFFSET 0.000000 35.415497 -3.314200
					CHANNELS 3 Xrotation Yrotation Zrotation
					JOINT Head
					{
						OFFSET 0.000000 16.899200 1.218300
						CHANNELS 3 Xrotation Yrotation Zrotation
						JOINT HeadTop_End
						{
							OFFSET 0.000000 22.206207 2.192500
							CHANNELS 3 Xrotation Yrotation Zrotation
							End Site
							{
								OFFSET 0.000000 22.314178 0.000000
							}
						}
					}
				}
				JOINT LeftShoulder
				{
					OFFSET 12.896400 26.716293 -4.548400
					CHANNELS 3 Xrotation Yrotation Zrotation
					JOINT LeftArm
					{
						OFFSET 19.027000 -4.857010 -1.718400
						CHANNELS 3 Xrotation Yrotation Zrotation
						JOINT LeftForeArm
						{
							OFFSET 24.179897 0.000000 0.000000
							CHANNELS 3 Xrotation Yrotation Zrotation
							JOINT LeftHand
							{
								OFFSET 27.156403 0.000000 0.000000
								CHANNELS 3 Xrotation Yrotation Zrotation
								JOINT LeftHandIndex1
								{
									OFFSET 16.441200 0.000000 0.000000
									CHANNELS 3 Xrotation Yrotation Zrotation
									JOINT LeftHandIndex2
									{
										OFFSET 4.821899 0.000000 0.000000
										CHANNELS 3 Xrotation Yrotation Zrotation
										JOINT LeftHandIndex3
										{
											OFFSET 6.386497 0.000000 0.000000
											CHANNELS 3 Xrotation Yrotation Zrotation
											JOINT LeftHandIndex4
											{
												OFFSET 5.188988 0.000000 0.000000
												CHANNELS 3 Xrotation Yrotation Zrotation
												End Site
												{
													OFFSET -0.178703 5.185913 0.000177
												}
											}
										}
									}
								}
								JOINT LeftHandThumb1
								{
									OFFSET 6.534897 -5.032593 5.900300
									CHANNELS 3 Xrotation Yrotation Zrotation
									JOINT LeftHandThumb2
									{
										OFFSET 3.818176 -2.204422 2.204423
										CHANNELS 3 Xrotation Yrotation Zrotation
										JOINT LeftHandThumb3
										{
											OFFSET 3.252098 -1.877594 1.877601
											CHANNELS 3 Xrotation Yrotation Zrotation
											JOINT LeftHandThumb4
											{
												OFFSET 5.251778 -3.032120 3.032117
												CHANNELS 3 Xrotation Yrotation Zrotation
												End Site
												{
													OFFSET 0.000023 6.780014 0.000000
												}
											}
										}
									}
								}
							}
						}
					}
				}
				JOINT RightShoulder
				{
					OFFSET -12.896300 26.716293 -4.548400
					CHANNELS 3 Xrotation Yrotation Zrotation
					JOINT RightArm
					{
						OFFSET -19.027000 -4.857010 -1.718400
						CHANNELS 3 Xrotation Yrotation Zrotation
						JOINT RightForeArm
						{
							OFFSET -24.179897 0.000000 0.000000
							CHANNELS 3 Xrotation Yrotation Zrotation
							JOINT RightHand
							{
								OFFSET -27.156403 0.000000 0.000000
								CHANNELS 3 Xrotation Yrotation Zrotation
								JOINT RightHandThumb1
								{
									OFFSET -6.591202 -4.852203 5.988100
									CHANNELS 3 Xrotation Yrotation Zrotation
									JOINT RightHandThumb2
									{
										OFFSET -3.818176 -2.204422 2.204423
										CHANNELS 3 Xrotation Yrotation Zrotation
										JOINT RightHandThumb3
										{
											OFFSET -3.252098 -1.877594 1.877601
											CHANNELS 3 Xrotation Yrotation Zrotation
											JOINT RightHandThumb4
											{
												OFFSET -5.251778 -3.032120 3.032117
												CHANNELS 3 Xrotation Yrotation Zrotation
												End Site
												{
													OFFSET -0.000023 6.780014 0.000000
												}
											}
										}
									}
								}
								JOINT RightHandIndex1
								{
									OFFSET -16.029404 0.000000 0.000000
									CHANNELS 3 Xrotation Yrotation Zrotation
									JOINT RightHandIndex2
									{
										OFFSET -5.213303 0.000000 0.000000
										CHANNELS 3 Xrotation Yrotation Zrotation
										JOINT RightHandIndex3
										{
											OFFSET -6.386528 0.000000 0.000000
											CHANNELS 3 Xrotation Yrotation Zrotation
											JOINT RightHandIndex4
											{
												OFFSET -5.189026 0.000000 0.000000
												CHANNELS 3 Xrotation Yrotation Zrotation
												End Site
												{
													OFFSET 0.236702 5.183624 0.001972
												}
											}
										}
									}
								}
							}
						}
					}
				}
			}
		}
	}
	JOINT LeftUpLeg
	{
		OFFSET 14.073000 -7.904099 -1.463000
		CHANNELS 3 Xrotation Yrotation Zrotation
		JOINT LeftLeg
		{
			OFFSET -0.109806 -34.073280 4.093200
			CHANNELS 3 Xrotation Yrotation Zrotation
			JOINT LeftFoot
			{
				OFFSET 0.109806 -29.899420 -6.319000
				CHANNELS 3 Xrotation Yrotation Zrotation
				JOINT LeftToeBase
				{
					OFFSET 1.551100 -14.988700 20.535801
					CHANNELS 3 Xrotation Yrotation Zrotation
					JOINT LeftToe_End
					{
						OFFSET 0.221200 0.570800 13.248301
						CHANNELS 3 Xrotation Yrotation Zrotation
						End Site
						{
							OFFSET 0.000000 13.262435 0.000000
						}
					}
				}
			}
		}
	}
	JOINT RightUpLeg
	{
		OFFSET -13.839300 -7.904099 -1.463000
		CHANNELS 3 Xrotation Yrotation Zrotation
		JOINT RightLeg
		{
			OFFSET 0.109694 -34.073219 4.093300
			CHANNELS 3 Xrotation Yrotation Zrotation
			JOINT RightFoot
			{
				OFFSET -0.109694 -29.899384 -6.319200
				CHANNELS 3 Xrotation Yrotation Zrotation
				JOINT RightToeBase
				{
					OFFSET -1.551100 -14.988700 20.535801
					CHANNELS 3 Xrotation Yrotation Zrotation
					JOINT RightToe_End
					{
						OFFSET -0.221200 0.570900 13.248299
						CHANNELS 3 Xrotation Yrotation Zrotation
						End Site
						{
							OFFSET 0.000000 13.262440 0.000000
						}
					}
				}
			}
		}
	}
}
MOTION
Frames: 9
Frame Time: 0.033333
-0.654229 16.582535 11.218781 -50.134531 -3.905441 2.154400 17.396333 1.996383 -1.224509 14.058373 0.337850 -1.395984 14.071623 0.318525 -1.302121 3.799431 -1.194085 -0.076183 0.835561 -6.778209 2.281817 -0.000000 -0.000001 -0.000000 2.021699 -26.153887 -1.563549 -44.663068 -38.899140 -32.894509 0.000004 -28.127899 -0.000012 -63.425854 14.507363 -46.058988 0.020423 -0.966552 -7.590924 0.267910 1.752969 -17.376524 0.057683 0.821036 -8.038820 -0.000000 -0.000000 0.000000 -0.666107 2.158565 4.837368 11.859624 25.414859 17.056656 -13.811960 3.541897 9.030661 -0.000002 0.000001 -0.000001 2.186050 28.731874 1.804238 -32.504075 36.595887 28.344098 -0.000007 39.574789 0.000012 -71.178515 7.307607 32.665496 -1.664520 -0.169101 -4.216940 12.708027 -29.838180 -16.127716 -15.551967 -3.555838 -12.703317 -0.000000 0.000001 0.000000 0.037633 1.264484 6.828363 0.213857 -1.396493 17.412934 0.046094 -0.654328 8.059122 -0.000000 -0.000001 0.000001 -73.431029 0.721914 4.309052 50.530238 -10.395842 -3.495930 56.832129 -13.806056 -14.072334 7.034178 -0.000005 -0.000007 -0.000001 0.000001 0.000000 -78.525756 -6.660535 -6.139333 50.459064 11.702472 4.020154 50.893621 9.755904 7.708875 5.035775 -0.000006 0.000008 0.000000 -0.000000 0.000000 
-1.058365 16.625671 11.299026 -50.077547 -5.443715 2.947945 17.395734 1.381070 -1.421668 14.055139 0.030922 -1.367480 14.069855 0.041234 -1.247560 3.618750 -0.986848 -0.427229 0.956549 -5.875743 1.350660 0.000000 0.000000 -0.000000 1.964004 -26.310285 -1.848129 -44.408237 -38.506001 -32.669095 0.000003 -28.141284 -0.000005 -63.580640 14.371903 -46.868932 0.020423 -0.966552 -7.590919 0.267910 1.752970 -17.376527 0.057683 0.821036 -8.038818 0.000000 0.000000 -0.000000 -0.666106 2.158566 4.837370 11.859625 25.414862 17.056656 -13.811960 3.541896 9.030667 -0.000000 -0.000001 0.000001 2.289116 28.612897 1.341834 -32.831736 36.757817 28.686152 -0.000015 39.569215 0.000016 -70.236836 7.046857 31.987132 -1.664521 -0.169104 -4.216939 12.708024 -29.838177 -16.127711 -15.551970 -3.555838 -12.703319 -0.000000 -0.000001 -0.000000 0.037633 1.264483 6.828366 0.213859 -1.396491 17.412934 0.046095 -0.654325 8.059122 -0.000000 0.000000 -0.000000 -73.327156 1.275017 6.164437 51.187777 -10.482432 -4.204280 55.853817 -13.496186 -14.271831 7.036453 -0.000001 0.000001 -0.000000 0.000001 -0.000000 -78.264474 -6.406504 -4.626612 49.731458 11.689382 3.975790 52.100642 10.216322 7.043781 5.132687 -0.000003 0.000003 0.000000 -0.000001 0.000000 
-1.430057 16.663246 11.336891 -50.070761 -6.913418 3.709349 17.283882 0.777399 -1.629047 13.947077 -0.215052 -1.349293 13.961743 -0.168074 -1.230932 3.570214 -0.795274 -0.506994 1.094858 -4.806241 0.647908 -0.000000 0.000000 -0.000000 2.021718 -26.304681 -1.571687 -44.116656 -38.234637 -33.009683 0.000003 -28.089617 -0.000002 -64.669932 13.957559 -47.071099 0.020423 -0.966552 -7.590921 0.267910 1.752969 -17.376525 0.057683 0.821036 -8.038819 -0.000000 -0.000000 0.000000 -0.666106 2.158566 4.837362 11.859625 25.414862 17.056657 -13.811960 3.541896 9.030667 -0.000000 0.000000 -0.000002 2.183725 28.621629 1.807639 -32.766436 36.868982 28.341942 0.000017 39.588494 -0.000015 -69.230408 6.810547 31.784637 -1.664520 -0.169106 -4.216933 12.708025 -29.838177 -16.127714 -15.551968 -3.555839 -12.703319 -0.000000 -0.000000 -0.000000 0.037632 1.264482 6.828371 0.213859 -1.396495 17.412934 0.046093 -0.654328 8.059120 0.000001 -0.000000 -0.000000 -73.129094 1.913904 8.116826 51.669797 -10.611784 -5.006340 54.990119 -13.196732 -14.463230 7.126876 0.000009 0.000005 0.000000 -0.000000 -0.000000 -77.949042 -5.993304 -3.163975 48.957286 11.800032 3.781014 53.342210 9.999196 6.775463 5.125508 0.000007 0.000001 -0.000003 0.000000 0.000001 
-1.749810 16.693825 11.312637 -50.200893 -8.183503 4.406117 17.111748 0.250531 -1.731647 13.793377 -0.417496 -1.295368 13.807544 -0.342530 -1.186847 3.731447 -0.632588 -0.680634 1.305745 -4.077864 0.221618 -0.000000 0.000001 -0.000000 2.011885 -26.520761 -1.706230 -43.770366 -38.206832 -33.269025 -0.000004 -27.959291 -0.000004 -66.043292 13.888766 -46.814434 0.020423 -0.966552 -7.590922 0.267910 1.752970 -17.376524 0.057683 0.821036 -8.038819 0.000000 -0.000000 -0.000000 -0.666107 2.158566 4.837363 11.859625 25.414864 17.056659 -13.811959 3.541895 9.030663 0.000001 0.000000 -0.000002 2.144045 28.535593 1.967145 -32.656186 36.645888 28.131188 -0.000005 39.605552 0.000003 -68.805229 6.344322 32.237035 -1.664522 -0.169106 -4.216936 12.708025 -29.838177 -16.127712 -15.551968 -3.555838 -12.703322 0.000000 0.000000 -0.000000 0.037631 1.264484 6.828371 0.213859 -1.396495 17.412935 0.046094 -0.654323 8.059122 -0.000001 -0.000001 0.000000 -72.770973 2.643513 10.011259 51.926793 -10.786245 -5.849905 54.273137 -12.857322 -14.597381 7.161058 0.000003 -0.000002 0.000001 0.000001 -0.000000 -77.602724 -5.481964 -1.909655 48.410745 11.934090 3.498389 54.211631 9.505570 6.686397 5.107961 0.000009 0.000005 0.000000 0.000001 -0.000000 
-2.034893 16.720917 11.243477 -50.518053 -9.340628 4.983210 16.959785 -0.172137 -1.765010 13.660144 -0.536358 -1.214238 13.673290 -0.446125 -1.118813 3.929556 -0.506822 -0.955189 1.681922 -3.666939 -0.163945 0.000000 -0.000001 -0.000001 1.981318 -26.918330 -2.000349 -43.626088 -38.255008 -33.625479 -0.000004 -27.853353 -0.000010 -67.163900 13.921608 -46.270382 0.020423 -0.966552 -7.590925 0.267910 1.752970 -17.376525 0.057683 0.821036 -8.038818 0.000000 -0.000000 -0.000000 -0.666106 2.158566 4.837364 11.859630 25.414862 17.056654 -13.811959 3.541896 9.030667 -0.000001 -0.000001 -0.000000 2.208967 28.164277 1.582080 -32.665482 36.301233 28.295302 -0.000013 39.595177 0.000008 -68.328366 5.966802 32.688852 -1.664521 -0.169102 -4.216933 12.708023 -29.838170 -16.127709 -15.551967 -3.555839 -12.703319 -0.000000 -0.000000 -0.000000 0.037633 1.264484 6.828368 0.213862 -1.396493 17.412932 0.046096 -0.654326 8.059120 -0.000002 -0.000001 0.000001 -72.281624 3.428225 11.948592 52.136852 -11.007106 -6.691015 53.584473 -12.420505 -14.652525 7.205687 -0.000000 -0.000003 0.000000 -0.000000 -0.000000 -77.086369 -4.943028 -0.784008 47.979856 12.020563 3.250454 54.754949 9.290352 6.729686 4.847351 0.000002 -0.000002 0.000000 -0.000000 -0.000001 
-2.277047 16.736435 11.133873 -50.948850 -10.356923 5.395578 16.807950 -0.552310 -1.737488 13.525248 -0.613502 -1.094826 13.536713 -0.508912 -1.018168 4.119737 -0.419176 -1.135450 2.115955 -3.331462 -0.559302 0.000000 -0.000000 0.000000 2.051890 -27.269880 -1.824104 -43.671185 -38.294371 -34.389186 0.000007 -27.732784 0.000009 -68.567921 14.022881 -45.384831 0.020423 -0.966552 -7.590923 0.267910 1.752970 -17.376525 0.057683 0.821036 -8.038819 -0.000000 -0.000000 -0.000000 -0.666107 2.158566 4.837366 11.859624 25.414861 17.056654 -13.811961 3.541894 9.030662 -0.000001 -0.000001 -0.000002 2.235431 27.687596 1.310052 -32.727828 35.978069 28.488038 -0.000013 39.578351 0.000004 -67.439806 5.938485 32.893095 -1.664520 -0.169105 -4.216937 12.708026 -29.838177 -16.127707 -15.551970 -3.555838 -12.703322 0.000000 0.000000 -0.000000 0.037632 1.264479 6.828368 0.213861 -1.396495 17.412930 0.046095 -0.654326 8.059120 0.000000 0.000000 -0.000000 -71.794072 4.071747 13.742859 52.417385 -11.255313 -7.360882 52.779962 -11.868978 -14.806824 7.461261 0.000005 -0.000002 0.000000 0.000001 -0.000000 -76.357717 -4.578452 0.146113 47.452931 12.046212 3.159650 55.253973 9.418901 6.630048 4.533959 0.000010 0.000005 -0.000000 -0.000001 -0.000000 
-2.455437 16.727844 10.959335 -51.701889 -11.225986 5.694257 16.804731 -0.954093 -1.685873 13.527979 -0.781746 -0.953055 13.540041 -0.650635 -0.885933 4.328405 -0.348631 -1.230116 2.500383 -2.971410 -0.973483 -0.000000 -0.000000 0.000000 2.127591 -27.575719 -1.594980 -43.714092 -38.422713 -34.869564 0.000000 -27.558389 0.000004 -69.865001 13.919806 -45.012828 0.020423 -0.966552 -7.590922 0.267910 1.752970 -17.376524 0.057683 0.821036 -8.038819 0.000000 -0.000000 -0.000000 -0.666106 2.158566 4.837363 11.859625 25.414859 17.056656 -13.811961 3.541894 9.030659 -0.000001 -0.000001 -0.000001 2.176886 27.174794 1.397171 -32.961465 35.973346 28.535712 0.000005 39.576240 -0.000012 -66.739930 5.854636 32.687680 -1.664522 -0.169105 -4.216937 12.708025 -29.838177 -16.127714 -15.551970 -3.555840 -12.703319 0.000000 -0.000000 -0.000000 0.037631 1.264481 6.828371 0.213859 -1.396494 17.412934 0.046093 -0.654330 8.059122 -0.000001 -0.000001 0.000002 -70.999243 4.665775 15.203033 52.648635 -11.484086 -7.833073 51.961313 -11.252028 -14.998728 7.822979 -0.000005 0.000008 0.000000 -0.000000 -0.000000 -75.239889 -4.422065 0.836942 46.944262 11.993670 3.185698 55.758266 9.664014 5.970202 4.473872 -0.000008 -0.000002 0.000000 0.000000 -0.000001 
-2.566866 16.681915 10.753716 -52.566522 -12.017445 5.999208 16.777053 -1.393654 -1.654850 13.508766 -1.004476 -0.823334 13.523292 -0.840556 -0.763990 4.527331 -0.271441 -1.280037 2.894459 -2.475267 -1.560897 -0.000000 0.000000 0.000000 2.164976 -27.680938 -1.474212 -43.926237 -38.458090 -35.484028 0.000008 -27.492635 0.000003 -70.575552 13.556553 -44.855850 0.020423 -0.966552 -7.590925 0.267910 1.752970 -17.376524 0.057683 0.821036 -8.038819 -0.000000 -0.000000 0.000000 -0.666107 2.158566 4.837364 11.859626 25.414864 17.056654 -13.811961 3.541895 9.030667 0.000002 -0.000000 0.000001 2.046803 26.694604 1.837438 -33.070731 36.193931 28.402939 0.000002 39.600508 -0.000010 -66.267431 5.521735 32.382678 -1.664521 -0.169105 -4.216938 12.708027 -29.838177 -16.127718 -15.551967 -3.555839 -12.703319 -0.000000 0.000000 -0.000000 0.037630 1.264482 6.828366 0.213861 -1.396493 17.412929 0.046092 -0.654325 8.059118 -0.000001 0.000001 -0.000001 -70.023345 5.264579 16.314265 52.733206 -11.666865 -8.214781 51.240325 -10.727300 -15.223172 8.180410 0.000000 -0.000005 0.000000 -0.000000 -0.000001 -73.985347 -4.235677 1.446760 46.433590 11.887101 3.205946 56.317857 10.052529 5.065749 4.509118 -0.000002 0.000002 -0.000001 0.000000 0.000000 
-2.636049 16.596237 10.514771 -53.534606 -12.776090 6.249319 16.727009 -1.803712 -1.603651 13.476785 -1.225149 -0.698026 13.494634 -1.033425 -0.647496 4.761446 -0.201214 -1.329722 3.399563 -1.973815 -2.294520 -0.000000 0.000000 0.000001 2.177708 -27.690185 -1.431601 -44.274929 -38.381381 -36.200979 0.000008 -27.554838 0.000013 -70.754415 13.152525 -44.751328 0.020423 -0.966552 -7.590923 0.267910 1.752970 -17.376524 0.057683 0.821036 -8.038819 -0.000000 0.000000 -0.000001 -0.666106 2.158566 4.837365 11.859625 25.414859 17.056659 -13.811958 3.541893 9.030664 -0.000003 0.000002 0.000002 1.977413 26.385733 2.064349 -33.276589 36.179218 28.427090 0.000019 39.619564 -0.000015 -65.816044 5.153633 32.369117 -1.664519 -0.169105 -4.216939 12.708025 -29.838177 -16.127712 -15.551968 -3.555839 -12.703320 0.000000 0.000000 -0.000000 0.037632 1.264481 6.828368 0.213858 -1.396493 17.412932 0.046094 -0.654324 8.059120 0.000003 -0.000000 0.000001 -68.900216 5.878360 17.192384 52.721011 -11.782470 -8.551160 50.619126 -10.435359 -15.296145 8.468421 -0.000005 -0.000001 0.000000 -0.000000 0.000000 -72.615088 -3.958187 2.035974 45.830450 11.792598 3.187512 56.870067 10.538467 4.382240 4.519812 0.000005 0.000002 -0.000000 0.000001 0.000000 
